<svg width="20" height="20" viewBox="0 0 20 20" fill="none" xmlns="http://www.w3.org/2000/svg">
<path d="M11.5583 10.3919L12.0917 10.9252L13.6917 9.3252" stroke="black" stroke-width="1.75035" stroke-linecap="round" stroke-linejoin="round"/>
<path d="M17.5001 8.24198C17.4501 9.04198 17.2251 10.917 16.3418 12.2003C16.0251 12.6503 15.6418 13.0753 15.2501 13.4586C15.0918 13.617 14.9251 13.767 14.7668 13.9086C14.0334 14.5503 13.3085 15.017 12.9251 15.2586C12.7418 15.3753 12.5168 15.3753 12.3418 15.2586C11.6584 14.817 9.90843 13.617 8.88343 12.1503C8.00843 10.8836 7.80011 9.03364 7.75011 8.23364C7.73344 8.00864 7.87514 7.8003 8.0918 7.70863C9.9168 6.94196 11.5501 5.57531 12.2501 4.93364C12.4668 4.75031 12.7835 4.75031 12.9835 4.93364C13.3501 5.27531 13.9751 5.80029 14.7501 6.35029C14.9085 6.45863 15.0751 6.56696 15.2335 6.68362C15.8168 7.06696 16.4668 7.43363 17.1418 7.70863C17.3668 7.8003 17.5001 8.00864 17.4834 8.24198H17.5001Z" stroke="black" stroke-width="1.75035" stroke-linecap="round" stroke-linejoin="round"/>
<path d="M7.74999 8.23338C7.79166 9.02504 8.00831 10.8834 8.88331 12.15C9.89998 13.6167 11.6583 14.8167 12.3417 15.2584C12.525 15.375 12.75 15.375 12.925 15.2584C13.3083 15.0167 14.025 14.55 14.7666 13.9084C14.9333 13.7667 15.1 13.6167 15.25 13.4584V14.4917C15.25 16.1417 13.9 17.4917 12.25 17.4917H5.49998C3.84998 17.4917 2.5 16.1417 2.5 14.4917V5.4917C2.5 3.8417 3.84998 2.4917 5.49998 2.4917H12.25C13.9 2.4917 15.25 3.8417 15.25 5.4917V6.67505C15.0833 6.56672 14.9166 6.45836 14.7666 6.34169C13.9833 5.79169 13.3666 5.25838 13 4.92504C12.8 4.74171 12.4833 4.74171 12.2666 4.92504C11.5583 5.56671 9.92498 6.93337 8.10832 7.70003C7.89165 7.7917 7.75001 8.00004 7.76667 8.22504L7.74999 8.23338Z" stroke="black" stroke-width="1.75035" stroke-linecap="round" stroke-linejoin="round"/>
</svg>
