<svg width="16" height="16" viewBox="0 0 16 16" fill="none" xmlns="http://www.w3.org/2000/svg">
<path d="M13.5498 8.95641C13.1685 11.2939 11.4248 13.0814 9.10602 13.5189C7.83102 13.7627 6.62478 13.5689 5.58103 13.0814C5.40603 12.9939 5.13102 12.9627 4.94352 13.0002C4.55602 13.0939 3.89353 13.2564 3.33728 13.3814C2.79978 13.5127 2.46852 13.1814 2.60602 12.6502L2.98728 11.0502C3.03103 10.8627 2.98728 10.5814 2.90603 10.4064C2.43103 9.41267 2.24353 8.25642 2.43728 7.04392C2.81228 4.71892 4.69978 2.83141 7.03103 2.44391C10.881 1.82516 14.1623 5.10016 13.531 8.95016L13.5498 8.95641Z" stroke="black" stroke-width="1.31" stroke-linecap="round" stroke-linejoin="round"/>
<path d="M8 5.55615L8 8.55616" stroke="black" stroke-width="1.31" stroke-linecap="round" stroke-linejoin="round"/>
<path d="M8 10.8125H8.00731" stroke="black" stroke-width="1.75035" stroke-linecap="round"/>
</svg>
