<svg width="16" height="16" viewBox="0 0 16 16" fill="none" xmlns="http://www.w3.org/2000/svg">
<path d="M5.5498 13.2125L2.71853 13.6187C2.66853 13.625 2.6248 13.6188 2.5748 13.6125C2.53105 13.6 2.4873 13.575 2.45605 13.5375C2.4248 13.5062 2.3998 13.4625 2.3873 13.4188C2.3748 13.375 2.3748 13.325 2.3873 13.275L2.79353 10.45C2.83728 10.125 2.98728 9.83125 3.21853 9.6L9.78103 3.0375C9.99353 2.825 10.2373 2.6625 10.5123 2.55C10.7873 2.4375 11.0811 2.375 11.3748 2.375C11.6686 2.375 11.9623 2.43125 12.2373 2.55C12.5123 2.6625 12.7623 2.83125 12.9686 3.0375C13.1811 3.25 13.3435 3.49376 13.456 3.76876C13.5685 4.04376 13.631 4.33749 13.631 4.63124C13.631 4.92499 13.5748 5.21874 13.456 5.49374C13.3435 5.76874 13.1748 6.01875 12.9686 6.225L6.40605 12.7812C6.1748 13.0125 5.87481 13.1625 5.55606 13.2125H5.5498Z" stroke="black" stroke-width="1.75035" stroke-miterlimit="10"/>
<path d="M7.7123 11.4812L4.51855 8.2937" stroke="black" stroke-width="1.75035" stroke-miterlimit="10" stroke-linecap="round"/>
</svg>
