<svg width="16" height="16" viewBox="0 0 16 16" fill="none" xmlns="http://www.w3.org/2000/svg">
<path d="M4.31248 11.1187H3.49999C2.88124 11.1187 2.375 10.6124 2.375 9.99365L2.375 7.93115C2.375 7.6249 2.63127 7.36865 2.93752 7.36865H4.31248C4.62498 7.36865 4.875 7.6249 4.875 7.93115L4.875 10.5562C4.875 10.8687 4.62498 11.1187 4.31248 11.1187V11.1187Z" stroke="black" stroke-width="1.31" stroke-miterlimit="10" stroke-linecap="round"/>
<path d="M3.625 7.3749L3.625 6.74365C3.625 4.3249 5.58125 2.36865 8 2.36865C10.4187 2.36865 12.375 4.3249 12.375 6.74365L12.375 7.36865" stroke="black" stroke-width="1.31" stroke-miterlimit="10" stroke-linecap="round"/>
<path d="M8.625 13.6249H9.25C10.7625 13.6249 12.025 12.5499 12.3125 11.1187" stroke="black" stroke-width="1.31" stroke-miterlimit="10" stroke-linecap="round"/>
<path d="M12.4688 11.1187H11.6875C11.375 11.1187 11.125 10.8624 11.125 10.5562L11.125 7.93115C11.125 7.6249 11.3813 7.36865 11.6875 7.36865H13.0625C13.375 7.36865 13.625 7.6249 13.625 7.93115L13.625 9.9624C13.625 10.5999 13.1063 11.1187 12.4688 11.1187Z" stroke="black" stroke-width="1.31" stroke-miterlimit="10" stroke-linecap="round"/>
</svg>
