<svg width="16" height="16" viewBox="0 0 16 16" fill="none" xmlns="http://www.w3.org/2000/svg">
<path fill-rule="evenodd" clip-rule="evenodd" d="M8.00022 3.03127C6.90023 3.03127 6.00661 3.92489 6.00661 5.02489L6.00661 6.59364H4.69385L4.69385 5.02489C4.69385 3.19988 6.17521 1.71851 8.00022 1.71851C9.82523 1.71851 11.3066 3.19988 11.3066 5.02489L11.3066 6.59364H9.99384L9.99384 5.02489C9.99384 3.92489 9.10021 3.03127 8.00022 3.03127Z" fill="black"/>
<path fill-rule="evenodd" clip-rule="evenodd" d="M8.00013 10.0132C8.36264 10.0132 8.65651 10.3071 8.65651 10.6696L8.65651 11.7946C8.65651 12.1571 8.36264 12.4509 8.00013 12.4509C7.63762 12.4509 7.34375 12.1571 7.34375 11.7946L7.34375 10.6696C7.34375 10.3071 7.63762 10.0132 8.00013 10.0132Z" fill="black"/>
<path fill-rule="evenodd" clip-rule="evenodd" d="M8.00016 8.78347C7.73081 8.78347 7.51247 9.00181 7.51247 9.27115C7.51247 9.54049 7.73081 9.75884 8.00016 9.75884C8.2695 9.75884 8.48784 9.54049 8.48784 9.27115C8.48784 9.00181 8.2695 8.78347 8.00016 8.78347ZM6.19971 9.27115C6.19971 8.27679 7.00579 7.4707 8.00016 7.4707C8.99452 7.4707 9.80061 8.27679 9.80061 9.27115C9.80061 10.2655 8.99452 11.0716 8.00016 11.0716C7.00579 11.0716 6.19971 10.2655 6.19971 9.27115Z" fill="black"/>
<path fill-rule="evenodd" clip-rule="evenodd" d="M5.50013 6.96877C4.48193 6.96877 3.65651 7.79419 3.65651 8.81239L3.65651 11.1249C3.65651 12.1431 4.48193 12.9685 5.50013 12.9685H10.5001C11.5183 12.9685 12.3437 12.1431 12.3437 11.1249L12.3437 8.81239C12.3437 7.79419 11.5183 6.96877 10.5001 6.96877H5.50013ZM2.34375 8.81239C2.34375 7.06917 3.75691 5.65601 5.50013 5.65601H10.5001C12.2434 5.65601 13.6565 7.06917 13.6565 8.81239L13.6565 11.1249C13.6565 12.8681 12.2434 14.2813 10.5001 14.2813H5.50013C3.75691 14.2813 2.34375 12.8681 2.34375 11.1249L2.34375 8.81239Z" fill="black"/>
</svg>
