<svg width="20" height="20" viewBox="0 0 20 20" fill="none" xmlns="http://www.w3.org/2000/svg">
<path d="M7.04183 11.6583C7.20017 12.4333 7.53349 13.1666 8.01682 13.8C8.50849 14.4333 9.13349 14.9416 9.86682 15.2916C10.5835 15.6416 11.3835 15.8333 12.1835 15.8333C12.9835 15.8333 13.7835 15.6583 14.5085 15.3166C14.6752 15.2333 14.8668 15.2083 15.0418 15.25L16.8585 15.6833C16.9252 15.7 16.9918 15.7 17.0585 15.6833C17.1252 15.6666 17.1835 15.6333 17.2335 15.5833C17.2835 15.5333 17.3085 15.475 17.3252 15.4166C17.3502 15.35 17.3502 15.2833 17.3252 15.225L16.8918 13.4416C16.8501 13.2666 16.8668 13.075 16.9585 12.9166C17.3252 12.175 17.5002 11.3583 17.4835 10.5333C17.4585 9.70831 17.2501 8.89996 16.8418 8.17496C16.4501 7.44996 15.8752 6.83331 15.1835 6.36665C14.4918 5.89998 13.7002 5.60831 12.8668 5.49997C12.0418 5.39997 11.1918 5.49164 10.4085 5.76664C9.62515 6.04164 8.91683 6.5083 8.34183 7.1083C7.77517 7.7083 7.35848 8.44162 7.12515 9.23329C6.90015 10.025 6.86683 10.8583 7.03349 11.6666L7.04183 11.6583Z" stroke="currentColor" stroke-width="1.75035" stroke-linecap="round" stroke-linejoin="round"/>
<path d="M10.4584 5.74985C9.92503 5.12485 9.2167 4.65818 8.43337 4.39151C7.65004 4.12485 6.7917 4.09154 5.98337 4.2832C5.1667 4.46654 4.42505 4.87486 3.83338 5.44986C3.24171 6.02486 2.82504 6.74985 2.62504 7.54985C2.38337 8.51652 2.47504 9.54153 2.89171 10.4499C3.00004 10.6582 3.02504 10.8999 2.96671 11.1249L2.4917 13.0665L4.46669 12.5999C4.70003 12.5415 4.95004 12.5748 5.15838 12.6748C5.74171 12.9332 6.37505 13.0665 7.01672 13.0665H7.50004" stroke="currentColor" stroke-width="1.75035" stroke-linecap="round" stroke-linejoin="round"/>
</svg>
