<svg width="20" height="20" viewBox="0 0 20 20" fill="none" xmlns="http://www.w3.org/2000/svg">
<path d="M2.5 5.67505H12.0417" stroke="black" stroke-width="1.75035" stroke-linecap="round" stroke-linejoin="round"/>
<path d="M14.7751 8.43341C16.28 8.43341 17.5001 7.19847 17.5001 5.67508C17.5001 4.1517 16.28 2.91675 14.7751 2.91675C13.2701 2.91675 12.05 4.1517 12.05 5.67508C12.05 7.19847 13.2701 8.43341 14.7751 8.43341Z" stroke="black" stroke-width="1.75035" stroke-linecap="round" stroke-linejoin="round"/>
<path d="M17.4999 14.325H7.95825" stroke="black" stroke-width="1.75035" stroke-linecap="round" stroke-linejoin="round"/>
<path d="M5.22499 17.0833C6.72997 17.0833 7.95001 15.8484 7.95001 14.325C7.95001 12.8016 6.72997 11.5667 5.22499 11.5667C3.72001 11.5667 2.5 12.8016 2.5 14.325C2.5 15.8484 3.72001 17.0833 5.22499 17.0833Z" stroke="black" stroke-width="1.75035" stroke-linecap="round" stroke-linejoin="round"/>
</svg>
